<?xml version="1.0" encoding="utf-8"?>
<!-- Generator: Adobe Illustrator 22.0.0, SVG Export Plug-In . SVG Version: 6.00 Build 0)  -->
<svg version="1.1" id="Layer_1" xmlns="http://www.w3.org/2000/svg" xmlns:xlink="http://www.w3.org/1999/xlink" x="0px" y="0px"
	 viewBox="0 0 107 40" style="enable-background:new 0 0 107 40;" xml:space="preserve">
<style type="text/css">
	.st0{fill:#8927FC;}
	.st1{fill:#00BFA2;}
	.st2{fill:#FFFFFF;}
	.st3{fill:#5062FB;}
	.st4{fill:#009DF9;}
	.st5{fill:#FF8B00;}
	.st6{fill:#18E24A;}
	.st7{fill:#00254A;}
	.st8{fill:#E6244C;}
	.st9{fill:#8092A4;}
	.st10{fill:url(#Fill-1_1_);}
	.st11{fill:url(#Fill-4_1_);}
	.st12{fill:url(#Fill-7_1_);}
	.st13{fill:#FFC58D;}
	.st14{fill:#E5E5E5;}
	.st15{fill:#CCCCCC;}
	.st16{fill:url(#Fill-1_3_);}
	.st17{fill:url(#Fill-4_3_);}
	.st18{fill:url(#Fill-7_3_);}
	.st19{opacity:0.8;fill:#8092A4;}
</style>
<g id="Exports">
	<g id="Paygo-horizontal-black-gradient">
		<g id="Group" transform="translate(1.000000, 1.000000)">
			<g id="Group-Copy-3" transform="translate(330.313589, 44.041812)">
				<path id="PAYGO-ENERGY" class="st2" d="M-284.5-25.1v-9.7h4.1c1.1,0,1.9,0.3,2.5,0.9c0.5,0.6,0.8,1.3,0.8,2.1
					c0,0.8-0.3,1.5-0.8,2.1c-0.6,0.6-1.4,0.9-2.4,0.9h-2.4v3.7H-284.5z M-280.4-30.4c0.5,0,0.9-0.1,1.1-0.4c0.2-0.3,0.4-0.6,0.4-1
					c0-0.4-0.1-0.7-0.3-1c-0.2-0.3-0.6-0.4-1.1-0.4h-2.5v2.9H-280.4z M-269.4-25.1l-0.8-2.1h-3.9l-0.8,2.1h-1.8l3.6-9.7h1.7l3.6,9.7
					H-269.4z M-270.7-28.7l-1.1-2.9c-0.1-0.4-0.2-0.7-0.3-1c-0.1,0.3-0.2,0.6-0.3,1l-1.1,2.9H-270.7z M-263.4-25.1v-3.8l-3.5-5.9
					h1.9l2.5,4.2l2.5-4.2h1.9l-3.5,5.9v3.8H-263.4z M-252.3-24.9c-0.7,0-1.4-0.1-1.9-0.4c-0.6-0.3-1-0.7-1.3-1.1s-0.6-1-0.8-1.6
					c-0.2-0.6-0.3-1.2-0.3-1.9c0-0.5,0.1-1,0.2-1.4c0.1-0.5,0.3-0.9,0.5-1.4c0.2-0.4,0.5-0.8,0.8-1.1c0.3-0.3,0.7-0.6,1.2-0.8
					c0.5-0.2,1-0.3,1.6-0.3c0.9,0,1.5,0.2,2.1,0.5c0.5,0.3,1,0.8,1.4,1.4l-1.5,0.8c-0.5-0.8-1.2-1.2-1.9-1.2c-0.5,0-0.9,0.1-1.2,0.3
					s-0.6,0.5-0.8,0.8c-0.2,0.3-0.3,0.7-0.4,1.1c-0.1,0.4-0.1,0.8-0.1,1.2c0,1,0.2,1.8,0.6,2.4c0.4,0.7,1.1,1,1.9,1
					c0.5,0,1-0.2,1.3-0.5c0.4-0.4,0.5-0.8,0.5-1.3v-0.2h-1.7v-1.6h3.4v1.4c0,1.2-0.3,2.1-1,2.8C-250.3-25.3-251.2-24.9-252.3-24.9z
					 M-241.5-24.9c-0.6,0-1.2-0.1-1.6-0.3c-0.5-0.2-0.9-0.5-1.2-0.8c-0.3-0.3-0.6-0.7-0.8-1.1c-0.2-0.4-0.4-0.9-0.5-1.4
					c-0.1-0.5-0.1-1-0.1-1.5s0-1,0.1-1.5s0.2-0.9,0.5-1.4c0.2-0.4,0.5-0.8,0.8-1.1c0.3-0.3,0.7-0.6,1.2-0.8c0.5-0.2,1-0.3,1.6-0.3
					c0.8,0,1.4,0.1,2,0.4s1,0.7,1.3,1.2c0.3,0.5,0.6,1,0.7,1.6c0.2,0.6,0.2,1.2,0.2,1.8c0,0.6-0.1,1.2-0.2,1.8
					c-0.2,0.6-0.4,1.1-0.7,1.6c-0.3,0.5-0.8,0.9-1.3,1.2S-240.8-24.9-241.5-24.9z M-241.5-26.5c0.4,0,0.8-0.1,1.2-0.3
					s0.6-0.5,0.8-0.8c0.2-0.3,0.3-0.7,0.4-1.1s0.1-0.8,0.1-1.2c0-0.4,0-0.8-0.1-1.2s-0.2-0.7-0.4-1.1c-0.2-0.3-0.5-0.6-0.8-0.8
					c-0.3-0.2-0.7-0.3-1.2-0.3c-0.6,0-1.1,0.2-1.5,0.6s-0.7,0.8-0.8,1.3c-0.2,0.5-0.2,1-0.2,1.6c0,0.4,0,0.8,0.1,1.2
					s0.2,0.8,0.4,1.1c0.2,0.3,0.5,0.6,0.8,0.8C-242.4-26.6-242-26.5-241.5-26.5z M-284.5-10.8v-9.7h6.3v1.6h-4.7v2.4h2.9v1.6h-2.9
					v2.7h5v1.6H-284.5z M-267.2-10.8h-1.5l-4-6.2c-0.1-0.2-0.3-0.4-0.4-0.7c0,0.2,0,0.5,0,0.7v6.2h-1.7v-9.7h1.6l3.9,6.1
					c0.1,0.1,0.2,0.4,0.4,0.7c0-0.3,0-0.5,0-0.7v-6.1h1.7V-10.8z M-263.6-10.8v-9.7h6.3v1.6h-4.7v2.4h2.9v1.6h-2.9v2.7h5v1.6H-263.6
					z M-253.9-10.8v-9.7h4.3c1.1,0,1.9,0.3,2.4,0.8s0.8,1.3,0.8,2.1c0,0.6-0.2,1.2-0.5,1.7s-0.8,0.9-1.5,1.1l1.9,4h-1.9l-1.9-3.8h-2
					v3.8H-253.9z M-252.2-16.2h2.7c0.5,0,0.9-0.1,1.1-0.4c0.2-0.3,0.3-0.6,0.3-1c0-0.4-0.1-0.7-0.3-1c-0.2-0.3-0.6-0.4-1.1-0.4h-2.7
					V-16.2z M-239.3-10.6c-0.7,0-1.4-0.1-1.9-0.4c-0.6-0.3-1-0.7-1.3-1.1s-0.6-1-0.8-1.6s-0.3-1.2-0.3-1.9c0-0.5,0.1-1,0.2-1.4
					c0.1-0.5,0.3-0.9,0.5-1.4c0.2-0.4,0.5-0.8,0.8-1.1c0.3-0.3,0.7-0.6,1.2-0.8c0.5-0.2,1-0.3,1.6-0.3c0.9,0,1.5,0.2,2.1,0.5
					c0.5,0.3,1,0.8,1.4,1.4l-1.5,0.8c-0.5-0.8-1.2-1.2-1.9-1.2c-0.5,0-0.9,0.1-1.2,0.3c-0.3,0.2-0.6,0.5-0.8,0.8
					c-0.2,0.3-0.3,0.7-0.4,1.1c-0.1,0.4-0.1,0.8-0.1,1.2c0,1,0.2,1.8,0.6,2.4c0.4,0.7,1.1,1,1.9,1c0.5,0,1-0.2,1.3-0.5
					c0.4-0.4,0.5-0.8,0.5-1.3v-0.2h-1.7v-1.6h3.4v1.4c0,1.2-0.3,2.1-1,2.8C-237.4-11-238.2-10.6-239.3-10.6z M-229.9-10.8v-3.8
					l-3.5-5.9h1.9l2.5,4.2l2.5-4.2h1.9l-3.5,5.9v3.8H-229.9z"/>
			</g>
			<g id="Group-2">
				<g id="LOGO-Copy-6">
					
						<linearGradient id="Fill-1_1_" gradientUnits="userSpaceOnUse" x1="-725.3687" y1="-109.786" x2="-725.4712" y2="-109.6751" gradientTransform="matrix(206.1471 0 0 -154.698 149553.2344 -16948.668)">
						<stop  offset="0" style="stop-color:#00FF49"/>
						<stop  offset="0.5183" style="stop-color:#00CB73"/>
						<stop  offset="1" style="stop-color:#00254A"/>
					</linearGradient>
					<path id="Fill-1" class="st10" d="M27.6,30c-0.1-0.1-0.2-0.1-0.3-0.1c0,0-4.2,0.2-8.3,0c-5.4-0.4-9.3-1.8-12.6-4
						c-4.9-3-5.8-6.4-6.2-7.8c-0.1-0.2-0.2-0.3-0.4-0.2c-0.2,0-0.3,0.2-0.3,0.3c0,0.3,0,0.6,0,0.9c0,11,8.9,19.9,20,19.9
						c0,0,2.9,0,3.7-0.5c1-0.5,3.6-4.4,4.5-8.3C27.6,30.1,27.6,30,27.6,30"/>
					
						<linearGradient id="Fill-4_1_" gradientUnits="userSpaceOnUse" x1="-724.4039" y1="-108.3123" x2="-724.454" y2="-108.4363" gradientTransform="matrix(130.5519 0 0 -239.8407 94604.3594 -25972.1562)">
						<stop  offset="0" style="stop-color:#00FF49"/>
						<stop  offset="0.5183" style="stop-color:#00CB73"/>
						<stop  offset="1" style="stop-color:#00254A"/>
					</linearGradient>
					<path id="Fill-4" class="st11" d="M33.5,5c-0.1-0.1-3.1-0.5-4.4-0.5c-4.7,0-7.1,1.6-7.6,1.9c-0.1,0.1-0.1,0.2-0.1,0.3
						c0,0.1,0,0.2,0.1,0.3l8.6,9.2c0.1,0.1,0.2,0.3,0.2,0.5c0,4.8,0,11.9,0,12.5c0.1,1.3-1.7,5.5-3.3,7.5c-0.1,0.1-0.1,0.3,0,0.4
						c0.1,0.1,0.2,0.1,0.3,0.1c0,0,0.1,0,0.1,0c7.2-3.2,11.8-10.5,11.8-18.3C39.2,13.6,37.3,8.8,33.5,5"/>
					
						<linearGradient id="Fill-7_1_" gradientUnits="userSpaceOnUse" x1="-725.6879" y1="-109.7208" x2="-725.5629" y2="-109.6219" gradientTransform="matrix(219.3255 0 0 -181.0751 159165.5625 -19851.793)">
						<stop  offset="0" style="stop-color:#00FF49"/>
						<stop  offset="0.5016" style="stop-color:#00CB73"/>
						<stop  offset="1" style="stop-color:#00254A"/>
					</linearGradient>
					<path id="Fill-7" class="st12" d="M7.7,23.7c0.1,0,0.1,0.1,0.2,0.1c0.1,0,0.1,0,0.2,0c0.1-0.1,0.2-0.2,0.2-0.3v-6.7
						c0-0.2,0.1-0.4,0.2-0.5c0,0,9.7-10.3,10.5-11.1c0.8-0.9,4.1-2.5,8.2-2.4c0.9,0,1.7,0.1,2.6,0.2c0,0,0,0,0.1,0
						c0.2,0,0.4-0.2,0.4-0.4c0-0.2-0.1-0.3-0.2-0.3C26.7,0.1,23-1,19.2-1C6.3-1,0.6,10.6,0.2,13.2C0.2,13.5,1.7,20.1,7.7,23.7"/>
				</g>
			</g>
		</g>
	</g>
</g>
</svg>
